# xmcd CD database file
#
# Track frame offsets:
#	150
#	7930
#	29542
#	53565
#	79230
#	94002
#	116920
#	133642
#	146252
#	159885
#	174242
#	192282
#	208637
#	223770
#
# Disc length: 3233 seconds
#
# Revision: 2
# Processed by: cddbd v1.5PL3 Copyright (c) Steve Scherf et al.
# Submitted via: CDex 1.50beta9
#
DISCID=b60c9f0e
DTITLE=ワタナベイビー - WATANABABY SESSION[CD1]
DYEAR=1999
DGENRE=Rock
TTITLE0=Intro.
TTITLE1=エブリモーニング
TTITLE2=キミが気になるんだ
TTITLE3=イッツ・ア・スモール・ブルース
TTITLE4=好きよ！ババさん
TTITLE5=事実上のＮｏ．２
TTITLE6=やり直せる男
TTITLE7=ヒツジ
TTITLE8=会っておくれよ
TTITLE9=電話をくれよ
TTITLE10=外は寒いよ
TTITLE11=サーフィンＵＳＡ
TTITLE12=アルファベットな夢
TTITLE13=大粒の涙
EXTD=YEAR: 1999
EXTT0=
EXTT1=
EXTT2=
EXTT3=
EXTT4=
EXTT5=
EXTT6=
EXTT7=
EXTT8=
EXTT9=
EXTT10=
EXTT11=
EXTT12=
EXTT13=
PLAYORDER=
